# AST/ASF file generated using VICON BodyLanguage
# -----------------------------------------------
:version 1.10
:name VICON
:units
  mass 1.0
  length 0.45
  angle deg
:documentation
   .ast/.asf automatically generated from VICON data using
   VICON BodyBuilder and BodyLanguage model FoxedUp or BRILLIANT.MOD
:root
   order TX TY TZ RX RY RZ
   axis XYZ
   position 0 0 0  
   orientation 0 0 0 
:bonedata
  begin
     id 1 
     name lhipjoint
     direction 0.678564 -0.644259 0.352817 
     length 2.99514 
     axis 0 0 0  XYZ
  end
  begin
     id 2 
     name lfemur
     direction 0.34202 -0.939693 0  
     length 7.29983  
     axis 0 0 20  XYZ
    dof rx ry rz
    limits (-160.0 20.0)
           (-70.0 70.0)
           (-60.0 70.0)
  end
  begin
     id 3 
     name ltibia
     direction 0.34202 -0.939693 0   
     length 8.59502   
     axis 0 0 20   XYZ
    dof rx
    limits (-10.0 170.0)
  end
  begin
     id 4 
     name lfoot
     direction 0.256607 -0.705022 0.661133   
     length 2.92136   
     axis -90 7.62852e-016 20   XYZ
    dof rx rz
    limits (-45.0 90.0)
           (-70.0 20.0)
  end
  begin
     id 5 
     name ltoes
     direction 1.53673e-011 -4.22167e-011 1   
     length 1.31421   
     axis -90 7.62852e-016 20   XYZ
    dof rx
    limits (-90.0 20.0)
  end
  begin
     id 6 
     name rhipjoint
     direction -0.664671 -0.655307 0.358867   
     length 2.94464  
     axis 0 0 0  XYZ 
  end
  begin
     id 7 
     name rfemur
     direction -0.34202 -0.939693 0   
     length 7.1902   
     axis 0 0 -20   XYZ
    dof rx ry rz
    limits (-160.0 20.0)
           (-70.0 70.0)
           (-70.0 60.0)
  end
  begin
     id 8 
     name rtibia
     direction -0.342306 -0.939589 0   
     length 7.92304   
     axis 0 0 -20   XYZ
    dof rx
    limits (-10.0 170.0)
 end
 begin
     id 9 
     name rfoot
     direction -0.135083 -0.371136 0.9187   
     length 2.14777  
     axis -90 -7.62852e-016 -20   XYZ
    dof rx rz
    limits (-45.0 90.0)
           (-20.0 70.0)
  end
  begin
     id 10 
     name rtoes
     direction -1.53535e-011 -4.21537e-011 1   
     length 1.05997   
     axis -90 -7.62852e-016 -20   XYZ
    dof rx
    limits (-90.0 20.0)
  end
  begin
     id 11 
     name lowerback
     direction -0.0195507 0.995133 0.0965771   
     length 2.09792   
     axis 0 0 0   XYZ
    dof rx ry rz
    limits (-20.0 45.0)
           (-30.0 30.0)
           (-30.0 30.0)
  end
  begin
     id 12 
     name upperback
     direction 0.00551419 0.999637 0.0263729   
     length 2.10514   
     axis 0 0 0   XYZ
    dof rx ry rz
    limits (-20.0 45.0)
           (-30.0 30.0)
           (-30.0 30.0)
  end
  begin
     id 13 
     name thorax
     direction 0.0138853 0.999728 -0.0187549   
     length 2.12411   
     axis 0 0 0   XYZ
    dof rx ry rz
    limits (-20.0 45.0)
           (-30.0 30.0)
           (-30.0 30.0)
  end
  begin
     id 14 
     name lowerneck
     direction 0.00575564 0.995441 0.0952053   
     length 2.98955   
     axis 0 0 0   XYZ
    dof rx ry rz
    limits (-20.0 45.0)
           (-30.0 30.0)
           (-30.0 30.0)
  end
  begin
     id 15 
     name upperneck
     direction 0.0362743 0.998452 -0.0421753   
     length 3.03688   
     axis 0 0 0   XYZ
    dof rx ry rz
    limits (-20.0 45.0)
           (-30.0 30.0)
           (-30.0 30.0)
  end
  begin
     id 16
     name head
     direction -0.0138164 0.799054 0.6011  
     length 1.47017  
     axis 0 0 0   XYZ
    dof rx ry rz
    limits (-20.0 45.0)
           (-30.0 30.0)
           (-30.0 30.0)
  end
  begin
     id 17 
     name lclavicle
     direction 0.925636 0.378361 -0.006363  
     length 3.33831  
     axis 0 0 0   XYZ
    dof ry rz
    limits (-20.0 10.0)
           (0.0 20.0)
  end
  begin
     id 18 
     name lhumerus
     direction 1 -4.48983e-011 -5.50319e-028   
     length 4.79344   
     axis -180 -30 -90   XYZ
    dof rx ry rz
    limits (-60.0 90.0)
           (-90.0 90.0)
           (-90.0 90.0)
  end
  begin
     id 19
     name lradius
     direction 1 -4.48905e-011 9.20478e-027   
     length 2.94221   
     axis -180 -30 -90   XYZ
    dof rx
    limits (-10.0 170.0)
  end
  begin
     id 20
     name lwrist
     direction 1 -4.4898e-011 2.08228e-026   
     length 1.4711   
     axis -1.38353e-014 90 90   XYZ
    dof ry
    limits (-180.0 0.0)
 end
  begin
     id 21 
     name lhand
     direction 1 -4.48957e-011 4.16456e-026   
     length 0.889984   
     axis -2.65735e-014 90 90   XYZ
    dof rx rz
    limits (-90.0 90.0)
           (-45.0 45.0)
  end
  begin
     id 22 
     name lfingers
     direction 1 -4.49044e-011 8.32913e-026   
     length 0.717528   
     axis -5.3147e-014 90 90   XYZ
    dof rx
    limits (0.0 90.0)
  end
  begin
     id 23
     name lthumb
     direction 0.707107 -6.35171e-011 0.707107   
     length 1.03023   
     axis -90 45 2.85299e-015   XYZ
    dof rx rz
    limits (-45.0 45.0)
           (-45.0 45.0)
  end
  begin
     id 24 
     name rclavicle
     direction -0.892514 0.445149 0.0725343   
     length 3.17271  
     axis 0 0 0   XYZ 
    dof ry rz
    limits (-10.0 20.0)
           (-20.0 0.0)
  end
  begin
     id 25 
     name rhumerus
     direction -1 -4.48952e-011 5.59695e-028  
     length 5.4863   
     axis -180 30 90   XYZ
    dof rx ry rz
    limits (-90.0 60.0)
           (-90.0 90.0)
           (-90.0 90.0)
  end
  begin
     id 26 
     name rradius
     direction -1 -4.48963e-011 1.14146e-026   
     length 3.17201   
     axis -180 30 90   XYZ
    dof rx
    limits (-10.0 170.0)
  end
  begin
     id 27 
     name rwrist
     direction -1 -4.49046e-011 2.08228e-026   
     length 1.58601   
     axis -1.38353e-014 -90 -90   XYZ
    dof ry
    limits (-180.0 0.0)
  end
  begin
     id 28
     name rhand
     direction -1 -4.48815e-011 4.16456e-026   
     length 0.874513   
     axis -2.65735e-014 -90 -90   XYZ
    dof rx rz
    limits (-90.0 90.0)
           (-45.0 45.0)
  end
  begin
     id 29
     name rfingers
     direction -1 -4.48918e-011 8.32913e-026   
     length 0.705055   
     axis -5.3147e-014 -90 -90   XYZ
    dof rx
    limits (0.0 90.0)
  end
  begin
     id 30
     name rthumb
     direction -0.707107 -6.34858e-011 0.707107   
     length 1.01232   
     axis -90 -45 -2.85299e-015   XYZ
    dof rx rz
    limits (-45.0 45.0)
           (-45.0 45.0)
  end
:hierarchy
  begin
    root lhipjoint rhipjoint lowerback
    lhipjoint lfemur
    lfemur ltibia
    ltibia lfoot
    lfoot ltoes
    rhipjoint rfemur
    rfemur rtibia
    rtibia rfoot
    rfoot rtoes
    lowerback upperback
    upperback thorax
    thorax lowerneck lclavicle rclavicle
    lowerneck upperneck
    upperneck head
    lclavicle lhumerus
    lhumerus lradius
    lradius lwrist
    lwrist lhand lthumb
    lhand lfingers
    rclavicle rhumerus
    rhumerus rradius
    rradius rwrist
    rwrist rhand rthumb
    rhand rfingers
  end

#!OML:ASF F:\VICON\USERDATA\INSTALL\rory3\rory3.ASF
:FULLY-SPECIFIED
:DEGREES
260
root 3.15929 18.4962 -0.726512 3.78635 88.2605 -8.5885
lowerback -12.8089 -1.40724 -1.11972
upperback -6.11317 -1.50341 2.94677
thorax 0.8771 -0.566507 3.50406
lowerneck -14.3918 -11.8203 -0.534989
upperneck 3.47169 33.6424 1.3338
head 24.0735 29.3786 179.541
rclavicle -6.55989e-015 2.38542e-015
rhumerus -32.364 53.5525 -87.492
rradius 103.537
rwrist -95.433
rhand 0.503429 -23.4035
rfingers 7.12502
rthumb 26.0725 -51.6341
lclavicle -6.55989e-015 2.38542e-015
lhumerus 12.7193 -40.1711 40.7557
lradius 115.5
lwrist 26.3306
lhand 5.42747 -0.967955
lfingers 7.12502
lthumb 30.7776 26.4757
rfemur -12.2596 17.33 17.7847
rtibia 12.3591
rfoot -17.752 -18.1785
rtoes -14.2701
lfemur -12.5235 -3.73159 -22.4418
ltibia 15.7413
lfoot -3.56304 3.96558
ltoes -9.95166
261
root 3.15923 18.4968 -0.725798 4.00437 88.259 -8.37325
lowerback -12.7897 -1.36965 -1.12639
upperback -6.10837 -1.45292 2.89237
thorax 0.867217 -0.542243 3.45781
lowerneck -14.4203 -11.8574 -0.45844
upperneck 3.46431 33.5509 1.36175
head 24.0526 29.3131 179.498
rclavicle 1.54058e-014 -1.35174e-014
rhumerus -32.3906 53.3669 -87.5742
rradius 103.587
rwrist -95.37
rhand 0.477202 -23.2662
rfingers 7.12502
rthumb 26.0474 -51.5005
lclavicle 1.54058e-014 -1.35174e-014
lhumerus 12.8031 -40.2436 40.6935
lradius 115.508
lwrist 26.4117
lhand 5.2732 -0.609946
lfingers 7.12502
lthumb 30.6305 26.8613
rfemur -12.2786 17.207 17.7864
rtibia 12.3756
rfoot -17.7656 -18.0618
rtoes -14.3306
lfemur -12.5517 -3.7389 -22.4492
ltibia 15.7807
lfoot -3.55473 3.93849
ltoes -9.94514
262
root 3.15959 18.4967 -0.725086 4.00108 88.2487 -8.37423
lowerback -12.7649 -1.39207 -1.14447
upperback -6.0794 -1.48363 2.9145
thorax 0.887324 -0.55845 3.48714
lowerneck -14.5222 -11.8306 -0.427262
upperneck 3.42181 33.5516 1.3247
head 24.0527 29.1865 179.528
rclavicle 1.3418e-014 -6.36111e-015
rhumerus -32.275 53.3674 -87.5131
rradius 103.665
rwrist -95.3839
rhand 0.344805 -23.2509
rfingers 7.12502
rthumb 25.9206 -51.5038
lclavicle 1.3418e-014 -6.36111e-015
lhumerus 12.6631 -40.1615 40.7652
lradius 115.521
lwrist 26.4903
lhand 5.00261 -0.393493
lfingers 7.12502
lthumb 30.3725 27.1257
rfemur -12.2768 17.1829 17.7981
rtibia 12.3841
rfoot -17.7433 -18.0662
rtoes -14.1314
lfemur -12.5763 -3.73336 -22.4498
ltibia 15.8156
lfoot -3.53583 3.96451
ltoes -9.9741
263
root 3.16054 18.4958 -0.724738 3.79924 88.2562 -8.58027
lowerback -12.7681 -1.4479 -1.16003
upperback -6.03847 -1.55997 2.98574
thorax 0.939336 -0.59733 3.5599
lowerneck -14.6288 -11.773 -0.46753
upperneck 3.37138 33.6182 1.25175
head 24.0698 29.1091 179.607
rclavicle -1.78906e-015 -1.11319e-014
rhumerus -32.1394 53.5083 -87.3708
rradius 103.802
rwrist -95.3729
rhand 0.180379 -23.1876
rfingers 7.12502
rthumb 25.7631 -51.4634
lclavicle -1.78906e-015 -1.11319e-014
lhumerus 12.4566 -40.038 40.9266
lradius 115.513
lwrist 26.5097
lhand 4.89751 -0.836076
lfingers 7.12502
lthumb 30.2722 26.7016
rfemur -12.2547 17.179 17.811
rtibia 12.3703
rfoot -17.7138 -18.0464
rtoes -13.8728
lfemur -12.584 -3.74644 -22.4409
ltibia 15.8382
lfoot -3.52414 4.01081
ltoes -9.99368
264
root 3.16115 18.4955 -0.72321 3.1303 88.2357 -9.22867
lowerback -12.7636 -1.40295 -1.15814
upperback -6.03491 -1.50043 2.95074
thorax 0.935555 -0.5682 3.53023
lowerneck -14.5915 -11.8061 -0.421416
upperneck 3.4123 33.6682 1.29891
head 24.1139 29.2134 179.594
rclavicle 5.26779e-015 -4.77083e-015
rhumerus -32.2552 53.2774 -87.4548
rradius 103.929
rwrist -95.2609
rhand 0.165757 -23.1604
rfingers 7.12502
rthumb 25.7491 -51.4383
lclavicle 5.26779e-015 -4.77083e-015
lhumerus 12.5413 -40.1821 40.9194
lradius 115.52
lwrist 26.4364
lhand 5.02437 -1.45692
lfingers 7.12502
lthumb 30.3932 26.0584
rfemur -12.1991 17.21 17.8447
rtibia 12.3241
rfoot -17.7001 -18.0191
rtoes -14.0651
lfemur -12.5555 -3.78809 -22.4059
ltibia 15.8483
lfoot -3.4407 4.01265
ltoes -9.93111
265
root 3.16194 18.4958 -0.722952 2.05835 88.2214 -10.3168
lowerback -12.7992 -1.29669 -1.11064
upperback -6.07539 -1.35969 2.83645
thorax 0.89894 -0.498216 3.40251
lowerneck -14.4531 -11.9086 -0.31517
upperneck 3.49942 33.6122 1.4263
head 24.1315 29.3863 179.496
rclavicle -6.75868e-015 1.35174e-014
rhumerus -32.5154 52.8257 -87.703
rradius 104.03
rwrist -95.0376
rhand 0.230347 -23.1857
rfingers 7.12502
rthumb 25.811 -51.4546
lclavicle -6.75868e-015 1.35174e-014
lhumerus 12.7278 -40.4982 40.8164
lradius 115.55
lwrist 26.3114
lhand 5.08736 -1.37604
lfingers 7.12502
lthumb 30.4533 26.1282
rfemur -12.1813 17.2987 17.8709
rtibia 12.2559
rfoot -17.7253 -18.11
rtoes -14.086
lfemur -12.5825 -3.8075 -22.3605
ltibia 15.8822
lfoot -3.40047 4.01934
ltoes -9.97325
266
root 3.16299 18.4967 -0.72244 2.7753 88.1975 -9.61658
lowerback -12.839 -1.21952 -1.11602
upperback -6.08774 -1.25429 2.74484
thorax 0.898595 -0.446181 3.32355
lowerneck -14.4009 -11.9722 -0.242826
upperneck 3.54913 33.6047 1.50381
head 24.1645 29.5344 179.451
rclavicle 7.45443e-015 -2.22639e-014
rhumerus -32.6677 52.5255 -87.8481
rradius 104.156
rwrist -94.7743
rhand 0.202768 -23.1124
rfingers 7.12502
rthumb 25.7846 -51.3851
lclavicle 7.45443e-015 -2.22639e-014
lhumerus 12.8473 -40.697 40.7867
lradius 115.542
lwrist 26.2199
lhand 5.07504 -0.724745
lfingers 7.12502
lthumb 30.4415 26.7817
rfemur -12.1817 17.5177 17.819
rtibia 12.2144
rfoot -17.756 -18.3131
rtoes -14.0909
lfemur -12.6104 -3.77081 -22.3817
ltibia 15.9189
lfoot -3.39373 4.0364
ltoes -10.0855
267
root 3.1621 18.4965 -0.721307 1.96255 88.1973 -10.4375
lowerback -12.8276 -1.19914 -1.09895
upperback -6.08168 -1.22962 2.74153
thorax 0.896783 -0.434381 3.31382
lowerneck -14.4381 -11.9676 -0.240737
upperneck 3.56181 33.6991 1.51916
head 24.2223 29.6936 179.467
rclavicle -9.44227e-016 -6.36111e-015
rhumerus -32.6571 52.3865 -87.8262
rradius 104.269
rwrist -94.4473
rhand 0.148957 -22.7338
rfingers 7.12502
rthumb 25.733 -51.0139
lclavicle -9.44227e-016 -6.36111e-015
lhumerus 12.8175 -40.7732 40.8915
lradius 115.519
lwrist 26.0819
lhand 5.13009 -0.46185
lfingers 7.12502
lthumb 30.494 27.0348
rfemur -12.1858 17.5328 17.8474
rtibia 12.1982
rfoot -17.7049 -18.3084
rtoes -14.1848
lfemur -12.6456 -3.76108 -22.3481
ltibia 15.9532
lfoot -3.40994 4.04052
ltoes -10.0427
268
root 3.16225 18.496 -0.720265 1.36621 88.191 -11.0348
lowerback -12.794 -1.19394 -1.05385
upperback -6.07086 -1.22897 2.73524
thorax 0.889045 -0.435479 3.28194
lowerneck -14.463 -11.9841 -0.223466
upperneck 3.53623 33.6409 1.49542
head 24.2218 29.663 179.534
rclavicle 1.48095e-014 -1.51076e-014
rhumerus -32.5322 52.2754 -87.735
rradius 104.36
rwrist -94.0908
rhand -0.230994 -21.7021
rfingers 7.12502
rthumb 25.3691 -50.0344
lclavicle 1.48095e-014 -1.51076e-014
lhumerus 12.7562 -40.7974 41.0231
lradius 115.469
lwrist 25.862
lhand 5.25418 -0.623747
lfingers 7.12502
lthumb 30.6124 26.8509
rfemur -12.1885 17.3704 17.8901
rtibia 12.1946
rfoot -17.6128 -18.1337
rtoes -14.1361
lfemur -12.6577 -3.74137 -22.3271
ltibia 15.9708
lfoot -3.42051 4.05067
ltoes -9.93308
269
root 3.16301 18.4955 -0.719988 1.60603 88.1818 -10.7895
lowerback -12.7718 -1.1928 -1.00422
upperback -6.06492 -1.2335 2.69484
thorax 0.881946 -0.439692 3.21099
lowerneck -14.4527 -12.0129 -0.151585
upperneck 3.52615 33.5704 1.49065
head 24.2243 29.5927 179.607
rclavicle 1.1281e-014 5.56597e-015
rhumerus -32.4865 52.187 -87.7716
rradius 104.501
rwrist -93.808
rhand 0.0545817 -21.8243
rfingers 7.12502
rthumb 25.6427 -50.1175
lclavicle 1.1281e-014 5.56597e-015
lhumerus 12.6078 -40.8175 41.1372
lradius 115.451
lwrist 25.6142
lhand 5.47445 -0.704268
lfingers 7.12502
lthumb 30.8224 26.7309
rfemur -12.1949 17.2581 17.9008
rtibia 12.2087
rfoot -17.5696 -18.046
rtoes -14.2151
lfemur -12.6579 -3.77243 -22.3278
ltibia 15.9911
lfoot -3.32759 4.04065
ltoes -9.91102
